# This file uses centimeters as units for non-parametric coordinates.

g default
v 312.005890 4.402496 -5.990059
v 314.006378 -3.728210 -6.344566
v 317.184784 -6.577881 1.278648
v 315.812744 -0.208374 6.344566
v 312.648956 6.577881 1.852242
v -317.184784 4.402496 -5.990059
v -317.184784 -3.728210 -6.344566
v -317.184784 -6.577881 1.278648
v -317.184784 -0.208374 6.344566
v -317.184784 6.577881 1.852242
vt 0.437500 0.687500
vt 0.387500 0.687500
vt 0.387500 0.312500
vt 0.437500 0.312500
vt 0.487500 0.687500
vt 0.487500 0.312500
vt 0.537500 0.687500
vt 0.537500 0.312500
vt 0.587500 0.687500
vt 0.587500 0.312500
vt 0.626409 0.248091
vt 0.451716 0.304853
vt 0.343750 0.156250
vt 0.451716 0.007647
vt 0.626409 0.064408
vn 0.000000 -0.553229 -0.833029
vn 0.000000 0.622160 -0.782890
vn 0.000000 0.595167 -0.803602
vn 0.000000 -0.660498 -0.750828
vn 0.000000 -0.963476 0.267796
vn 0.000000 -0.946573 0.322490
vn 0.000000 -0.044860 0.998993
vn 0.000000 -0.176107 0.984371
vn 0.000000 0.936309 0.351177
vn 0.000000 0.898851 0.438254
vn 0.931013 0.304369 -0.201432
vn 0.931013 0.304369 -0.201432
vn 0.931013 0.304369 -0.201432
vn 0.931013 0.304369 -0.201432
vn 0.931013 0.304369 -0.201432
s 1
g polySurface49 polySurface25
f 7/1/1 6/2/2 1/3/3 2/4/4
f 8/5/5 7/1/1 2/4/4 3/6/6
f 9/7/7 8/5/5 3/6/6 4/8/8
f 10/9/9 9/7/7 4/8/8 5/10/10
f 6/2/2 10/9/9 5/10/10 1/3/3
s off
f 5/11/11 4/12/12 3/13/13 2/14/14 1/15/15
