# This file uses centimeters as units for non-parametric coordinates.

g default
v -377.702637 115.883644 248.385193
v 379.900757 115.601730 248.097290
v -377.702637 115.798866 -248.191360
v 379.900757 115.476524 -247.812698
v -377.702637 96.103035 -253.500519
v 239.508362 116.165565 248.673080
v 239.508377 112.711823 236.068192
v 239.508362 116.121201 -248.569977
v 239.508362 96.185089 -253.917816
v -243.836166 29.715513 -107.659042
v -240.830719 0.856403 -104.886673
v 240.913361 0.856403 -104.886673
v 243.975449 29.715515 -107.659042
v 380.656952 64.682999 -94.518776
v -378.991791 65.557190 -94.271324
v -378.991791 34.262115 -103.130066
v -378.991791 34.262115 102.546989
v 380.231598 97.131416 253.382645
v 380.231598 97.022774 -253.195358
v -377.946533 97.325691 253.717621
v -378.991791 65.557190 93.738365
v -243.836166 29.689606 107.281281
v 380.656952 64.682999 93.984421
v 243.975449 29.689608 107.281273
v -239.342499 116.121201 -248.569977
v -239.342499 96.185089 -253.917816
v -239.342484 116.165565 248.673080
v -240.830719 0.856403 104.595970
v 240.913361 0.856403 104.595963
v -209.385483 11.996857 73.743904
v -239.342484 67.305565 93.246246
v 214.918152 0.000000 78.839996
v -214.844452 0.000000 -79.059120
v -214.844452 0.000000 78.839996
v 214.918137 0.000000 -79.059120
v 209.530563 11.996857 73.743904
v 239.508362 67.305565 93.246246
v -209.385483 11.996857 -74.163239
v 209.530563 11.996857 -74.163239
v 239.508362 67.305565 -93.776405
v -239.342484 67.305565 -93.776405
v -239.342484 97.519958 254.052643
v 239.508362 97.519958 254.052643
v 381.082306 36.756844 101.844795
v 381.082306 36.756844 -102.423874
vt 0.459126 0.731177
vt 0.376525 0.732913
vt 0.376525 0.516761
vt 0.459126 0.518461
vt 0.625054 0.030701
vt 0.726101 0.030701
vt 0.726101 0.234939
vt 0.625027 0.234939
vt 0.875000 0.234939
vt 0.774035 0.234939
vt 0.774035 0.030701
vt 0.875000 0.030701
vt 0.459126 0.399035
vt 0.376525 0.399035
vt 0.376525 0.351101
vt 0.459126 0.351101
vt 0.376525 0.850965
vt 0.458369 0.850143
vt 0.458369 0.899741
vt 0.376525 0.898899
vt 0.540902 0.518461
vt 0.540902 0.731177
vt 0.541680 0.850143
vt 0.540902 0.898899
vt 0.459126 0.898899
vt 0.459126 0.850965
vt 0.540902 0.850965
vt 0.540902 0.231459
vt 0.459126 0.231459
vt 0.459126 0.030701
vt 0.540902 0.030701
vt 0.540902 0.259675
vt 0.540902 0.351101
vt 0.540902 0.399035
vt 0.458730 0.899450
vt 0.458730 0.850482
vt 0.541284 0.850482
vt 0.541680 0.899741
vt 0.541284 0.899450
vt 0.458730 0.899450
vt 0.458730 0.850482
vt 0.541284 0.850482
vt 0.541284 0.899450
vt 0.625000 0.399035
vt 0.625000 0.351101
vt 0.625000 0.515061
vt 0.376621 0.030701
vt 0.625000 0.719299
vt 0.125000 0.015350
vt 0.225965 0.015350
vt 0.225965 0.234939
vt 0.125000 0.234939
vt 0.273899 0.015350
vt 0.273899 0.234939
vt 0.375096 0.234939
vt 0.378050 0.231459
vn -0.003157 0.259674 -0.965691
vn -0.003157 0.259674 -0.965691
vn -0.003157 0.259674 -0.965691
vn -0.003157 0.259674 -0.965691
vn 0.999870 0.016121 -0.000614
vn 0.999870 0.016121 -0.000614
vn 0.999870 0.016121 -0.000614
vn 0.999870 0.016121 -0.000614
vn 0.999870 0.016129 0.000607
vn 0.999870 0.016129 0.000607
vn 0.999870 0.016129 0.000607
vn 0.999870 0.016129 0.000607
vn -0.012519 0.999922 0.000000
vn -0.012519 0.999922 0.000000
vn -0.012519 0.999922 0.000000
vn -0.012519 0.999922 0.000000
vn -0.033716 -0.999431 -0.000062
vn -0.033716 -0.999432 -0.000062
vn -0.033716 -0.999432 -0.000062
vn -0.033716 -0.999431 -0.000062
vn 0.999884 0.015229 0.000000
vn 0.999884 0.015229 0.000000
vn 0.999884 0.015229 0.000000
vn 0.999884 0.015229 0.000000
vn 0.000000 0.259089 -0.965853
vn 0.000000 0.259089 -0.965853
vn 0.000000 0.259089 -0.965853
vn 0.000000 0.259089 -0.965853
vn 0.000000 -0.910394 -0.413743
vn 0.000000 -0.910394 -0.413743
vn 0.000000 -0.910394 -0.413743
vn 0.000000 -0.910394 -0.413743
vn 0.000000 -1.000000 0.000000
vn 0.000000 -1.000000 0.000000
vn 0.000000 -1.000000 0.000000
vn 0.000000 -1.000000 0.000000
vn 0.000000 0.277209 0.960810
vn 0.000000 0.277209 0.960810
vn 0.000000 0.277209 0.960810
vn 0.000000 0.277209 0.960810
vn -0.000507 0.953973 -0.299891
vn -0.000507 0.953973 -0.299891
vn -0.000507 0.953973 -0.299891
vn -0.000507 0.953973 -0.299891
vn -0.000507 0.953973 -0.299891
vn 0.000000 1.000000 0.000000
vn 0.000000 1.000000 0.000000
vn 0.000000 1.000000 0.000000
vn 0.000000 1.000000 0.000000
vn 0.000000 0.953700 0.300759
vn 0.000000 0.953700 0.300759
vn 0.000000 0.953700 0.300759
vn 0.000000 0.953700 0.300759
vn -0.994616 -0.103628 -0.000006
vn -0.994616 -0.103628 -0.000006
vn -0.994616 -0.103628 -0.000006
vn -0.994616 -0.103628 -0.000006
vn 0.000000 -0.095625 -0.995417
vn 0.000000 -0.095625 -0.995417
vn 0.000000 -0.095625 -0.995417
vn 0.000000 -0.095625 -0.995417
vn 0.994413 -0.105559 -0.000006
vn 0.994413 -0.105559 -0.000006
vn 0.994413 -0.105559 -0.000006
vn 0.994413 -0.105559 -0.000006
vn 0.000000 -0.092731 0.995691
vn 0.000000 -0.092731 0.995691
vn 0.000000 -0.092731 0.995691
vn 0.000000 -0.092731 0.995691
vn -0.032938 -0.999457 0.000000
vn -0.032938 -0.999457 0.000000
vn -0.032938 -0.999457 0.000000
vn -0.032938 -0.999457 0.000000
vn 0.000000 -0.999451 -0.033140
vn 0.000000 -0.999451 -0.033140
vn 0.000000 -0.999451 -0.033140
vn 0.000000 -0.999451 -0.033140
vn 0.032927 -0.999458 -0.000000
vn 0.032927 -0.999458 -0.000000
vn 0.032927 -0.999458 -0.000000
vn 0.032927 -0.999458 -0.000000
vn 0.000000 -0.999448 0.033232
vn 0.000000 -0.999448 0.033232
vn 0.000000 -0.999448 0.033232
vn 0.000000 -0.999448 0.033232
vn -0.022159 -0.917431 -0.397278
vn -0.022159 -0.917431 -0.397277
vn -0.022159 -0.917431 -0.397278
vn -0.022159 -0.917431 -0.397278
vn -0.007220 0.952167 0.305493
vn -0.007220 0.952167 0.305493
vn -0.007220 0.952167 0.305493
vn -0.007220 0.952167 0.305493
vn 0.051383 -0.998679 -0.000062
vn 0.051383 -0.998679 -0.000062
vn 0.051383 -0.998679 -0.000062
vn 0.051383 -0.998679 -0.000062
vn 0.005195 0.276205 0.961085
vn 0.005195 0.276205 0.961085
vn 0.005195 0.276205 0.961085
vn 0.005195 0.276205 0.961085
vn 0.034484 -0.919005 -0.392734
vn 0.034484 -0.919005 -0.392734
vn 0.034484 -0.919005 -0.392734
vn 0.034484 -0.919005 -0.392734
vn 0.910200 -0.414170 0.000000
vn 0.910200 -0.414170 0.000000
vn 0.910200 -0.414170 0.000000
vn 0.910200 -0.414170 0.000000
vn 0.000000 -0.390973 -0.920402
vn 0.000000 -0.390973 -0.920402
vn 0.000000 -0.390973 -0.920402
vn 0.000000 -0.390974 -0.920402
vn -0.912234 -0.409669 0.000000
vn -0.912234 -0.409669 0.000000
vn -0.912234 -0.409669 0.000000
vn -0.912234 -0.409669 0.000000
vn 0.018577 0.999827 0.000000
vn 0.018577 0.999828 0.000000
vn 0.018577 0.999827 0.000000
vn 0.018577 0.999827 0.000000
vn 0.011025 0.951455 0.307592
vn 0.011025 0.951455 0.307592
vn 0.011025 0.951455 0.307592
vn 0.011025 0.951455 0.307592
vn 0.000000 -0.377845 0.925869
vn 0.000000 -0.377844 0.925869
vn 0.000000 -0.377844 0.925869
vn 0.000000 -0.377845 0.925869
vn -0.022089 -0.915167 0.402468
vn -0.022089 -0.915167 0.402468
vn -0.022089 -0.915167 0.402468
vn -0.022089 -0.915167 0.402468
vn 0.000000 -0.907748 0.419516
vn 0.000000 -0.907748 0.419516
vn 0.000000 -0.907748 0.419516
vn 0.000000 -0.907748 0.419516
vn 0.030755 -0.918112 0.395127
vn 0.030755 -0.918112 0.395127
vn 0.030755 -0.918112 0.395127
vn 0.030755 -0.918112 0.395127
vn 0.004885 0.269231 -0.963063
vn 0.004885 0.269231 -0.963063
vn 0.004885 0.269231 -0.963063
vn 0.004885 0.269231 -0.963063
vn -0.999968 0.002135 -0.007686
vn -0.999968 0.002135 -0.007686
vn -0.999968 0.002135 -0.007686
vn -0.999968 0.002135 -0.007686
vn -1.000000 0.000001 0.000000
vn -1.000000 0.000001 0.000000
vn -1.000000 0.000001 0.000000
vn -1.000000 0.000001 0.000000
vn -0.999966 0.006385 0.005265
vn -0.999966 0.006385 0.005265
vn -0.999966 0.006385 0.005265
vn -0.999966 0.006385 0.005265
vn -0.002637 0.276703 0.960952
vn -0.002637 0.276703 0.960952
vn -0.002637 0.276703 0.960952
vn -0.002637 0.276703 0.960952
vn -0.007179 0.952441 -0.304637
vn -0.007179 0.952441 -0.304637
vn -0.007179 0.952441 -0.304637
vn -0.007179 0.952441 -0.304637
vn 0.012675 0.951705 -0.306751
vn 0.012675 0.951705 -0.306751
vn 0.012675 0.951705 -0.306751
vn 0.012675 0.951705 -0.306751
vn 0.012675 0.951705 -0.306751
s off
g polySurface36 polySurface25
f 26/1/1 5/2/2 3/3/3 25/4/4
f 18/5/5 44/6/6 23/7/7 2/8/8
f 4/9/9 14/10/10 45/11/11 19/12/12
f 41/13/13 15/14/14 21/15/15 31/16/16
f 16/17/17 10/18/18 22/19/19 17/20/20
f 14/10/21 23/7/22 44/6/23 45/11/24
f 25/4/25 8/21/26 9/22/27 26/1/28
f 26/1/29 9/22/30 13/23/31 10/18/32
f 36/24/33 30/25/34 38/26/35 39/27/36
f 6/28/37 27/29/38 42/30/39 43/31/40
f 7/32/41 37/33/42 31/16/43 27/29/44 6/28/45
f 31/16/46 37/33/47 40/34/48 41/13/49
f 25/4/50 41/13/51 40/34/52 8/21/53
f 28/35/54 22/19/55 10/18/56 11/36/57
f 11/36/58 10/18/59 13/23/60 12/37/61
f 12/37/62 13/23/63 24/38/64 29/39/65
f 29/39/66 24/38/67 22/19/68 28/35/69
f 34/40/70 28/35/71 11/36/72 33/41/73
f 33/41/74 11/36/75 12/37/76 35/42/77
f 35/42/78 12/37/79 29/39/80 32/43/81
f 32/43/82 29/39/83 28/35/84 34/40/85
f 5/2/86 26/1/87 10/18/88 16/17/89
f 3/3/90 15/14/91 41/13/92 25/4/93
f 44/6/94 24/38/95 13/23/96 45/11/97
f 18/5/98 2/8/99 6/28/100 43/31/101
f 19/12/102 45/11/103 13/23/104 9/22/105
f 30/25/106 34/40/107 33/41/108 38/26/109
f 36/24/110 32/43/111 34/40/112 30/25/113
f 36/24/114 39/27/115 35/42/116 32/43/117
f 14/44/118 40/34/119 37/33/120 23/45/121
f 8/21/122 40/34/123 14/44/124 4/46/125
f 35/42/126 39/27/127 38/26/128 33/41/129
f 42/30/130 20/47/131 17/20/132 22/19/133
f 43/31/134 42/30/135 22/19/136 24/38/137
f 18/5/138 43/31/139 24/38/140 44/6/141
f 4/46/142 19/48/143 9/22/144 8/21/145
f 5/49/146 16/50/147 15/51/148 3/52/149
f 15/51/150 16/50/151 17/53/152 21/54/153
f 21/54/154 17/53/155 20/47/156 1/55/157
f 27/29/158 1/56/159 20/47/160 42/30/161
f 21/15/162 1/56/163 27/29/164 31/16/165
f 7/32/166 6/28/167 2/8/168 23/45/169 37/33/170
